<svg width="240" height="216" viewBox="0 0 240 216" fill="none" xmlns="http://www.w3.org/2000/svg">
<path d="M166.254 187.145H55.2584C25.9389 185.258 12.775 164.863 12.775 146.805C12.775 130.633 23.2462 112.664 45.9839 107.723C36.0112 73.2227 54.9593 49.0548 77.298 37.6446C103.227 24.3477 141.821 24.2578 165.257 49.8633L165.855 50.6719C172.836 58.668 177.723 68.2813 180.515 79.422C192.781 81.8478 203.352 87.7774 211.63 96.5821C230.478 116.617 234.068 151.477 207.142 172.86C195.999 182.095 181.395 187.197 166.254 187.145ZM114.596 42.2266C104.025 42.2266 93.5534 44.8321 84.7775 49.3243C60.6437 61.7227 52.4661 84.7228 62.8376 110.957C63.6355 113.024 63.3363 115.36 61.9401 117.067C60.5439 118.774 58.2502 119.942 55.8568 119.942C36.5099 121.199 27.8337 134.317 27.8337 146.805C27.8337 159.293 36.5099 172.41 55.8568 173.758H165.955C177.523 173.848 188.692 169.985 197.169 162.977L197.269 162.887C217.513 146.895 214.522 120.57 200.261 105.387C193.28 97.9298 184.005 93.3478 173.335 92.09C171.739 91.9236 170.248 91.2876 169.094 90.2805C167.94 89.2734 167.187 87.9515 166.952 86.5196C164.858 75.379 160.47 66.0352 153.888 58.668C153.688 58.4884 153.589 58.2188 153.389 58.0391C142.818 46.8985 128.657 42.2266 114.596 42.2266Z" fill="white"/>
<path d="M72.4014 123.643C71.3044 123.643 70.1077 123.374 69.1104 122.924C64.9219 121.038 60.3345 120.049 55.6474 119.96C53.6737 119.908 51.7996 119.167 50.4222 117.892C49.0447 116.618 48.272 114.91 48.2676 113.131C48.3673 109.448 52.2567 106.393 55.8468 106.483C62.7279 106.573 69.6091 108.1 75.6924 110.885C79.3823 112.502 80.8782 116.635 79.0831 119.96C77.7866 122.295 75.1938 123.643 72.4014 123.643ZM158.046 95.8634C155.254 95.8634 152.661 94.5157 151.365 92.09C150.48 90.4814 150.34 88.6222 150.976 86.9207C151.612 85.2193 152.971 83.8148 154.756 83.0157C160.939 80.2306 167.82 78.7032 174.601 78.6134C178.59 78.5235 182.18 81.4884 182.18 85.2618C182.28 88.9454 178.989 92.09 174.801 92.09C170.213 92.1798 165.526 93.1681 161.337 95.0548C160.24 95.5939 159.143 95.8634 158.046 95.8634Z" fill="white"/>
<path d="M205.935 107.633C203.841 107.633 201.647 106.824 200.151 105.207C193.394 97.8354 183.758 93.0769 173.225 91.9102C171.629 91.7439 170.138 91.1079 168.984 90.1008C167.83 89.0937 167.078 87.7718 166.842 86.3399C164.748 75.1993 160.36 65.8555 153.778 58.4883C152.681 57.3032 152.081 55.8087 152.083 54.2657C152.083 52.4688 152.881 50.6719 154.277 49.4141C162.255 42.1368 172.826 38.1836 184.195 38.1836C195.428 38.2074 206.193 42.2379 214.136 49.3936C222.078 56.5492 226.552 66.2476 226.579 76.3673C226.579 88.047 220.794 98.9181 210.622 106.195C209.226 107.184 207.63 107.633 205.935 107.633ZM180.605 79.422C190.178 81.3087 198.855 85.3516 206.035 91.2813C209.122 87.6189 211.013 83.2524 211.493 78.674C211.974 74.0955 211.026 69.4872 208.755 65.3682C206.485 61.2493 202.983 57.7835 198.643 55.3615C194.304 52.9395 189.3 51.6576 184.195 51.6602C179.009 51.6602 174.023 52.918 169.734 55.4336C174.82 62.3516 178.411 70.4376 180.605 79.422Z" fill="white"/>
</svg>
