<svg width="215" height="215" viewBox="0 0 215 215" fill="none" xmlns="http://www.w3.org/2000/svg">
<path d="M149.425 186.611H49.7188C23.3813 184.73 11.5563 164.484 11.5563 146.388C11.5563 130.263 20.9625 112.346 41.4771 107.419C35.7438 85.0236 40.5812 63.9715 55.1833 48.7423C71.7562 31.3631 98.3625 24.4652 121.206 31.5423C142.169 37.9923 156.95 55.2819 162.325 79.2902C180.69 83.411 195.292 97.2965 201.204 116.467C207.565 137.34 201.831 158.751 186.154 172.457C176.082 181.553 162.997 186.595 149.425 186.611ZM49.8979 119.603H49.7188C32.6979 120.857 24.9042 133.936 24.9042 146.388C24.9042 158.84 32.6979 171.919 50.0771 173.174H148.977C159.369 172.994 169.313 169.411 177.017 162.424C190.992 150.151 191.977 132.682 188.215 120.409C184.452 108.046 173.971 94.0715 155.696 91.7423C154.257 91.5649 152.914 90.9289 151.865 89.9286C150.817 88.9282 150.118 87.6166 149.873 86.1881C146.29 64.6881 134.644 49.8173 117.175 44.4423C98.9896 38.8881 78.0271 44.3527 64.8583 58.059C52.9437 70.511 49.5396 87.7111 55.0938 106.613C59.6625 107.24 64.0521 108.584 68.0833 110.644C71.3979 112.346 72.7417 116.378 71.0396 119.692C70.6408 120.482 70.0901 121.184 69.4191 121.76C68.7481 122.336 67.97 122.774 67.1294 123.049C66.2888 123.324 65.4023 123.43 64.5206 123.361C63.639 123.292 62.7796 123.05 61.9917 122.649C58.3619 120.778 54.3398 119.795 50.2563 119.782C50.1667 119.603 50.0771 119.603 49.8979 119.603Z" fill="#FFFEFE"/>
<path d="M141.972 95.5854C139.463 95.5854 137.134 94.2417 135.97 91.8229C135.175 90.219 135.049 88.3652 135.62 86.6687C136.191 84.9722 137.412 83.5717 139.015 82.775C144.57 79.9979 150.751 78.475 156.842 78.3854C160.426 78.2958 163.651 81.2521 163.651 85.0146C163.74 88.6875 160.784 91.8229 157.022 91.8229C152.901 91.9125 148.69 92.8979 144.928 94.7792C143.942 95.3167 142.957 95.5854 141.972 95.5854Z" fill="#FFFEFE"/>
</svg>
