<svg width="215" height="215" viewBox="0 0 215 215" fill="none" xmlns="http://www.w3.org/2000/svg">
<path d="M149.174 185.903H148.816C145.143 185.903 142.097 182.858 142.187 179.095C142.187 175.422 145.232 172.466 148.905 172.466H149.264C159.476 172.466 169.241 168.703 176.766 161.716C190.651 149.533 191.637 132.153 187.874 119.88C184.112 107.608 173.72 93.7221 155.535 91.3929C154.096 91.2155 152.753 90.5796 151.704 89.5792C150.655 88.5788 149.957 87.2673 149.712 85.8388C146.128 64.4283 134.572 49.6471 117.193 44.2721C99.0971 38.7179 78.2242 44.1825 65.145 57.8888C52.4242 71.2367 49.4679 89.7804 56.8137 110.295C57.1431 111.131 57.3014 112.024 57.2795 112.922C57.2576 113.82 57.0558 114.705 56.686 115.523C56.3163 116.342 55.7861 117.078 55.1269 117.689C54.4677 118.299 53.6928 118.771 52.848 119.076C52.0033 119.382 51.1058 119.515 50.2088 119.468C49.3117 119.42 48.4333 119.193 47.6253 118.801C46.8174 118.408 46.0965 117.857 45.5051 117.181C44.9138 116.505 44.464 115.717 44.1825 114.864C35.1346 89.6908 39.2554 65.5929 55.47 48.6617C72.0429 31.3721 98.3804 24.4742 121.224 31.5513C142.097 38.0013 156.878 55.2013 162.164 79.0304C180.439 83.1513 195.041 96.9471 200.864 116.028C207.224 136.812 201.401 158.133 185.903 171.749C175.827 180.839 162.745 185.881 149.174 185.903Z" fill="white"/>
<path d="M49.88 185.876H49.4321C23.6321 184.085 11.8967 163.839 11.8967 145.833C11.8967 127.826 23.6321 107.67 49.4321 105.789C56.0612 105.699 62.6008 107.222 68.3342 110.089C71.6487 111.791 72.9029 115.822 71.2904 119.137C69.5883 122.451 65.5571 123.706 62.2425 122.093C58.48 120.122 54.18 119.316 50.0592 119.226C33.1279 120.481 25.4238 133.47 25.4238 145.833C25.4238 158.195 33.1279 171.185 50.5071 172.439C54.18 172.708 56.9571 175.933 56.6883 179.606C56.33 183.189 53.3737 185.876 49.88 185.876ZM141.712 95.3077C139.293 95.3077 136.874 93.9639 135.71 91.5452C135.306 90.7529 135.065 89.8881 135 89.0014C134.935 88.1147 135.048 87.2239 135.332 86.3813C135.615 85.5387 136.064 84.7612 136.652 84.0942C137.24 83.4273 137.955 82.8844 138.756 82.4973C144.22 79.7202 150.401 78.1973 156.493 78.1077C159.897 78.2869 163.301 80.9744 163.301 84.7369C163.391 88.4098 160.435 91.5452 156.672 91.5452C152.551 91.6348 148.431 92.6202 144.668 94.5014C143.772 95.1285 142.697 95.3077 141.712 95.3077ZM71.3979 203.811C69.6958 203.811 67.9937 203.184 66.65 201.84C65.4005 200.576 64.6998 198.87 64.6998 197.092C64.6998 195.315 65.4005 193.609 66.65 192.344L84.5667 174.428C87.1646 171.83 91.4646 171.83 94.0625 174.428C96.6604 177.026 96.6604 181.326 94.0625 183.924L76.1458 201.84C75.5351 202.481 74.7974 202.987 73.9799 203.327C73.1623 203.666 72.2829 203.831 71.3979 203.811ZM107.231 203.811C105.529 203.811 103.827 203.184 102.483 201.84C101.234 200.576 100.533 198.87 100.533 197.092C100.533 195.315 101.234 193.609 102.483 192.344L120.4 174.428C122.998 171.83 127.298 171.83 129.896 174.428C132.494 177.026 132.494 181.326 129.896 183.924L111.979 201.84C111.368 202.481 110.631 202.987 109.813 203.327C108.996 203.666 108.116 203.831 107.231 203.811ZM107.231 167.978C105.529 167.978 103.827 167.351 102.483 166.007C101.234 164.743 100.533 163.037 100.533 161.259C100.533 159.481 101.234 157.775 102.483 156.511L120.4 138.594C122.998 135.996 127.298 135.996 129.896 138.594C132.494 141.192 132.494 145.492 129.896 148.09L111.979 166.007C111.368 166.648 110.631 167.154 109.813 167.493C108.996 167.833 108.116 167.998 107.231 167.978ZM71.3979 167.978C69.6958 167.978 67.9937 167.351 66.65 166.007C65.4005 164.743 64.6998 163.037 64.6998 161.259C64.6998 159.481 65.4005 157.775 66.65 156.511L84.5667 138.594C87.1646 135.996 91.4646 135.996 94.0625 138.594C96.6604 141.192 96.6604 145.492 94.0625 148.09L76.1458 166.007C75.5351 166.648 74.7974 167.154 73.9799 167.493C73.1623 167.833 72.2829 167.998 71.3979 167.978Z" fill="white"/>
</svg>
