<svg width="215" height="215" viewBox="0 0 215 215" fill="none" xmlns="http://www.w3.org/2000/svg">
<path d="M111.612 203.784C110.089 203.784 108.566 203.784 107.043 203.695C56.8765 201.455 14.9515 161.053 11.4577 111.782C8.41188 69.4988 32.8681 29.9925 72.2848 13.4196C83.4827 8.76126 89.3952 12.3446 91.9035 14.9425C94.4119 17.4508 97.9056 23.2738 93.2473 33.9342C89.13 43.3983 87.0543 53.6242 87.1556 63.9446C87.3348 103.63 120.301 137.313 160.524 138.926C166.347 139.195 172.081 138.747 177.635 137.761C189.46 135.611 194.387 140.359 196.268 143.405C198.149 146.451 200.299 152.99 193.133 162.665C174.141 188.645 143.951 203.784 111.612 203.784ZM24.8056 110.797C27.8515 153.438 64.2223 188.376 107.581 190.257C137.054 191.69 165.004 178.253 182.204 154.782C183.547 152.901 184.174 151.557 184.443 150.84C183.637 150.751 182.204 150.661 179.964 151.109C173.424 152.274 166.616 152.722 159.897 152.453C112.597 150.572 73.8973 110.886 73.6285 64.1238C73.6285 51.7613 76.0473 39.8467 80.9744 28.6488C81.8702 26.6779 82.0494 25.3342 82.139 24.6175C81.3327 24.6175 79.8994 24.7967 77.5702 25.7821C43.439 40.1154 22.2973 74.3363 24.8056 110.797Z" fill="#FFFEFE"/>
</svg>
