<svg width="215" height="205" viewBox="0 0 215 205" fill="none" xmlns="http://www.w3.org/2000/svg">
<path d="M107.5 172.448C71.6667 172.448 42.5521 143.333 42.5521 107.5C42.5521 71.6667 71.6667 42.5521 107.5 42.5521C143.333 42.5521 172.448 71.6667 172.448 107.5C172.448 143.333 143.333 172.448 107.5 172.448ZM107.5 55.9896C79.1021 55.9896 55.9896 79.1021 55.9896 107.5C55.9896 135.898 79.1021 159.01 107.5 159.01C135.898 159.01 159.01 135.898 159.01 107.5C159.01 79.1021 135.898 55.9896 107.5 55.9896ZM107.5 205.683C102.573 205.683 98.5417 202.01 98.5417 197.083V196.367C98.5417 191.44 102.573 187.408 107.5 187.408C112.427 187.408 116.458 191.44 116.458 196.367C116.458 201.294 112.427 205.683 107.5 205.683ZM171.462 180.421C169.133 180.421 166.894 179.525 165.102 177.823L163.937 176.658C163.108 175.829 162.45 174.844 162.001 173.761C161.553 172.677 161.321 171.516 161.321 170.343C161.321 169.17 161.553 168.008 162.001 166.925C162.45 165.841 163.108 164.856 163.937 164.027C164.767 163.198 165.751 162.54 166.835 162.091C167.919 161.642 169.08 161.411 170.253 161.411C171.426 161.411 172.587 161.642 173.671 162.091C174.755 162.54 175.739 163.198 176.569 164.027L177.733 165.192C178.978 166.437 179.826 168.023 180.171 169.75C180.516 171.477 180.343 173.267 179.672 174.896C179.002 176.524 177.864 177.917 176.404 178.901C174.943 179.884 173.223 180.413 171.462 180.421ZM43.5375 180.421C41.2083 180.421 38.9687 179.525 37.1771 177.823C36.3466 176.994 35.6877 176.01 35.2382 174.926C34.7887 173.842 34.5573 172.681 34.5573 171.507C34.5573 170.334 34.7887 169.172 35.2382 168.089C35.6877 167.005 36.3466 166.02 37.1771 165.192L38.3417 164.027C39.171 163.198 40.1557 162.54 41.2393 162.091C42.3229 161.642 43.4844 161.411 44.6573 161.411C45.8302 161.411 46.9916 161.642 48.0753 162.091C49.1589 162.54 50.1435 163.198 50.9729 164.027C51.8023 164.856 52.4602 165.841 52.909 166.925C53.3579 168.008 53.5889 169.17 53.5889 170.343C53.5889 171.516 53.3579 172.677 52.909 173.761C52.4602 174.844 51.8023 175.829 50.9729 176.658L49.8083 177.823C48.1062 179.525 45.7771 180.421 43.5375 180.421ZM197.083 116.458H196.367C191.44 116.458 187.408 112.427 187.408 107.5C187.408 102.573 191.44 98.5417 196.367 98.5417C201.294 98.5417 205.683 102.573 205.683 107.5C205.683 112.427 202.01 116.458 197.083 116.458ZM18.6333 116.458H17.9167C12.9896 116.458 8.95833 112.427 8.95833 107.5C8.95833 102.573 12.9896 98.5417 17.9167 98.5417C22.8437 98.5417 27.2333 102.573 27.2333 107.5C27.2333 112.427 23.5604 116.458 18.6333 116.458ZM170.298 53.6604C167.969 53.6604 165.729 52.7646 163.937 51.0625C163.107 50.2337 162.448 49.2493 161.999 48.1656C161.549 47.0819 161.318 45.9201 161.318 44.7469C161.318 43.5736 161.549 42.4119 161.999 41.3282C162.448 40.2444 163.107 39.26 163.937 38.4312L165.102 37.2667C165.931 36.4373 166.916 35.7794 168 35.3305C169.083 34.8817 170.245 34.6506 171.418 34.6506C172.591 34.6506 173.752 34.8817 174.836 35.3305C175.919 35.7794 176.904 36.4373 177.733 37.2667C178.563 38.096 179.221 39.0807 179.669 40.1643C180.118 41.2479 180.349 42.4094 180.349 43.5823C180.349 44.7552 180.118 45.9166 179.669 47.0003C179.221 48.0839 178.563 49.0685 177.733 49.8979L176.569 51.0625C174.867 52.7646 172.627 53.6604 170.298 53.6604ZM44.7021 53.6604C42.3729 53.6604 40.1333 52.7646 38.3417 51.0625L37.1771 49.8083C36.3477 48.9789 35.6898 47.9943 35.2409 46.9107C34.7921 45.8271 34.5611 44.6656 34.5611 43.4927C34.5611 42.3198 34.7921 41.1583 35.2409 40.0747C35.6898 38.9911 36.3477 38.0065 37.1771 37.1771C38.0065 36.3477 38.9911 35.6898 40.0747 35.2409C41.1583 34.7921 42.3198 34.5611 43.4927 34.5611C44.6656 34.5611 45.8271 34.7921 46.9107 35.2409C47.9943 35.6898 48.9789 36.3477 49.8083 37.1771L50.9729 38.3417C54.4667 41.8354 54.4667 47.4792 50.9729 50.9729C49.2708 52.7646 46.9417 53.6604 44.7021 53.6604ZM107.5 27.2333C102.573 27.2333 98.5417 23.5604 98.5417 18.6333V17.9167C98.5417 12.9896 102.573 8.95833 107.5 8.95833C112.427 8.95833 116.458 12.9896 116.458 17.9167C116.458 22.8437 112.427 27.2333 107.5 27.2333Z" fill="#FFFEFE"/>
</svg>
